<svg xmlns="http://www.w3.org/2000/svg" viewBox="0 0 152.42 180.32"><defs><style>.cls-1{fill:#fefefd;}.cls-2{fill:#ea3600;}</style></defs><title>Asset 3</title><g id="Layer_2" data-name="Layer 2"><g id="Layer_1-2" data-name="Layer 1"><path class="cls-1" d="M108.09,39.29c9,.7,17.91.15,26.86.29,6.3.09,6.34,0,6.18,6.22-.77,30.35-5.19,60-16.95,88.22-5.34,12.8-12.1,24.75-22.28,34.42-9.14,8.69-19.69,13.71-32.61,11.27-10.9-2.06-19-8.77-25.82-17C31.72,148.56,24.81,132,19.68,114.58,12.75,91.1,9.86,67,9.59,42.58c0-2.49,1-3,3.19-3,9,.07,17.94,0,26.91,0,1.22,0,2.43-.19,3.65-.3,1.37-1,3-.84,4.53-.84q27.84,0,55.69,0C105.11,38.45,106.72,38.27,108.09,39.29Z"/><path class="cls-2" d="M108.09,39.29a18.23,18.23,0,0,1-2.31.29q-30.06,0-60.13,0a18.2,18.2,0,0,1-2.31-.28L10.65,30.08c-3-.85-6-1.75-9-2.62-.67-.19-1.85.19-1.66-1,.14-.89,1.13-1,1.94-.95A57.88,57.88,0,0,0,8,26c9.52-.33,19,.4,28.5.91,6.82.36,13.64.28,20.45.62,2.75.14,4.1-1.18,5.19-3.29Q67.61,13.59,73.14,3C73.8,1.68,74.28-.08,76,0c1.46.07,1.93,1.72,2.54,2.87,4,7.38,7.94,14.75,11.77,22.21a3.85,3.85,0,0,0,3.85,2.43c10.75.3,21.48-.48,32.2-.93,7.24-.31,14.5-.45,21.73-1.1a4.67,4.67,0,0,1,4.34,1.38C137.39,31,122.91,35.74,108.09,39.29Z"/><path class="cls-2" d="M119.45,109.65c0,4.71-.21,9.43.07,14.13.2,3.23-1,3.89-4,3.81-7.39-.19-14.8,0-22.19-.12-2.57,0-3.49.64-3.44,3.34.14,9.64,0,19.29.09,28.93,0,2.32-.59,3.08-3,3-7.85-.14-15.7-.17-23.54,0-2.69.07-3.11-.95-3.08-3.31.12-9.42-.05-18.84.1-28.25.05-2.82-.51-3.9-3.63-3.8-7.62.26-15.25,0-22.87.14-2.35,0-3.08-.74-3.07-3q.12-15.13,0-30.27c0-2.41.88-3,3.14-3,7.63.11,15.25-.1,22.87.1,2.76.07,3.66-.62,3.61-3.48-.17-9.52,0-19.06-.12-28.58,0-2.47.58-3.3,3.17-3.25q11.43.25,22.87,0c2.69-.05,3.65.57,3.59,3.49-.19,9.53,0,19.06-.11,28.59,0,2.49.64,3.29,3.2,3.24,7.84-.16,15.69,0,23.54-.1,2.19,0,2.92.67,2.86,2.87C119.35,99.34,119.44,104.5,119.45,109.65Z"/></g></g></svg>