<svg xmlns="http://www.w3.org/2000/svg" viewBox="0 0 400 400"><defs><style>.cls-1{fill:#d8d8f9;}.cls-2{fill:#fdfdfd;}.cls-3{fill:#c5c6fa;}.cls-4{fill:#b1b1b6;}.cls-5{fill:#eee;}</style></defs><title>napkin-400</title><g id="Layer_2" data-name="Layer 2"><g id="Layer_1-2" data-name="Layer 1"><g id="Layer_1-2-2" data-name="Layer 1-2"><path class="cls-1" d="M0,398.94V1.07H398.9V391.5c0,7.45,0,7.47-7.43,7.47Zm189.11-7.59c5.19,2.34,10.16,5.74,16.33,3.29,2.85-1.14,5.73-2.21,8.6-3.32.53,0,1.05.12,1.59.12q86.7,0,173.42.14c4.54,0,4.62-2.31,4.62-5.65q-.07-186.42,0-372.83c0-4.3-1.09-5.78-5.61-5.78q-188.27.16-376.54,0c-5,0-6.33,1.66-6.33,6.47Q5.4,199.4,5.23,385c0,5.23,1.8,6.59,6.78,6.56,30.93-.18,61.87-.07,92.81-.1Q147,391.46,189.11,391.35Z"/><path class="cls-2" d="M0,398.94H391.49c7.44,0,7.44,0,7.44-7.47V1a8.85,8.85,0,0,0,0-1,18.69,18.69,0,0,1,1,4.24q.07,103.46,0,206.89V400Q202.4,400,4.77,400A23.2,23.2,0,0,1,0,398.94Z"/><path class="cls-3" d="M398.93,0a6,6,0,0,1,0,1L0,1.07a18.29,18.29,0,0,1,4.24-1q104-.08,208,0Z"/><path class="cls-3" d="M189.12,391.34l-84.32.17c-30.94,0-61.85-.08-92.81.1-5,0-6.78-1.34-6.78-6.57q.19-185.61,0-371.24c0-4.8,1.38-6.46,6.33-6.46q188.28.17,376.55,0c4.51,0,5.6,1.48,5.6,5.78q-.15,186.4,0,372.83c0,3.32-.08,5.66-4.62,5.65q-86.71-.21-173.42-.14c-.53,0-1.06-.09-1.58-.13,4.89-5.1,4.68-11.45,4.41-17.83q36.21,0,72.43-.08c2.17,0,4.34-.81,6.51-1.25l15.45,0c1.63.44,3.26,1.24,4.89,1.27,17,.09,33.92-.08,50.88.14,4.78.07,6-1.79,6-6.25q-.13-167.76,0-335.52c0-4.32-1.46-5.34-5.51-5.33q-85.6.16-171.21.09c-1.45,0-2.9.3-5.78.61,2.65,2.31,4.36,3.49,5.68,5,2.79,3.24,5.38,6.64,8,10l-1.49.23A31.61,31.61,0,0,1,199.89,39c-2.72-2.91-5-6.27-7.86-9-1.74-1.63-4.29-2.4-6.48-3.56l-154.33.06c-6.84,0-6.85,0-6.85,7V366.07c0,7.38,0,7.31,7.35,7.41,24.18.32,48.35.71,72.53,1a15.83,15.83,0,0,0,3.93-1l4.22-1.13a34.09,34.09,0,0,0,6,1.1c19.21.08,38.41.05,57.62.05,7.33,0,7.2,0,7.58,7.2.1,1.87,1.32,3.69,2,5.53l2.28,1.3C188.33,388.78,188.73,390.07,189.12,391.34Z"/><path class="cls-4" d="M204.36,42.39l1.49-.22L211,45.74l15.85,23.33c3.29,10.83,9.08,21,8.77,32.79q-1.1,17.52-2.2,35.05c-.76,3.42-1.32,6.9-2.32,10.25C227.6,158.59,224,170,220.42,181.38c-1,3.29-2.78,6.56-2.9,9.89-.39,10.13-.15,20.29-.15,30.44l-.06,8.44a59.37,59.37,0,0,0-.77,7.72c.1,4.37.83,8.71.86,13.1.09,32.07.06,64.14.13,96.21a46.16,46.16,0,0,0,.8,6.16l.12,20.18c.28,6.37.48,12.73-4.41,17.82-2.87,1.1-5.75,2.18-8.6,3.33-6.17,2.45-11.14-.95-16.32-3.29-.39-1.28-.79-2.56-1.18-3.85a50.54,50.54,0,0,1,5.29,2.24c9.7,5.4,19.75-1.06,19.28-12.76-1.07-27-1.07-54-1.19-81-.17-35-.06-70,0-105a16.13,16.13,0,0,1,1-6.16,212.53,212.53,0,0,0,16.19-63.06c2-20.78-1.56-40-11.62-58.06C213,56.46,208.56,49.48,204.36,42.39Z"/><path class="cls-1" d="M108.21,373.45a15.36,15.36,0,0,1-3.92,1c-24.18-.29-48.36-.68-72.54-1-7.33-.09-7.35,0-7.35-7.4V33.54c0-7,0-7,6.85-7l154.34-.05V47.8c-2.66-.73-5.32-2.08-8-2.08-41.34-.13-82.68,0-124-.16-4.28,0-5.94,1.28-5.93,5.75q.14,148.14,0,296.27c0,4.43,1.56,5.86,5.89,5.81,13.6-.2,27.21-.09,40.81-.1.87,4.42,1.41,8.94,2.7,13.23,1.14,3.79,3.29,7,8.3,6C106.22,372.33,107.26,373.11,108.21,373.45Z"/><path class="cls-1" d="M211,45.74l-5.11-3.57c-2.67-3.35-5.25-6.76-8-10-1.31-1.53-3-2.71-5.67-5,2.87-.31,4.32-.61,5.78-.61q85.6,0,171.2-.09c4.05,0,5.51,1,5.51,5.32q-.17,167.76,0,335.52c0,4.47-1.21,6.32-6,6.26-16.95-.22-33.92-.05-50.88-.14-1.63,0-3.26-.83-4.88-1.27,4.82-.66,9.64-1.49,14.48-1.93,5.92-.52,7-1.75,5.87-7.47-.59-3.1-.93-6.25-1.38-9.38,3.71,0,7.42,0,11.13-.05,9.06,0,9.3-.22,9.3-9.15V54.75c0-1.07,0-2.13,0-3.19.17-4.31-2-6-6.17-6-8,.15-15.9.15-23.85.21l-3.85-1.16c-2.84-3.36-5.4-7-8.56-10-8.69-8.26-20.5-8.48-28.45.65-3.11,3.57-6.47,6.91-9.72,10.35Z"/><path class="cls-5" d="M185.6,47.8V26.48c2.19,1.15,4.74,1.92,6.47,3.55,2.87,2.72,5.14,6.09,7.85,9a31.61,31.61,0,0,0,4.44,3.37c4.2,7.08,8.6,14.06,12.58,21.29C227,81.78,230.54,101,228.56,121.75a213.44,213.44,0,0,1-16.19,63.06,16.59,16.59,0,0,0-1,6.16c-.06,35-.17,70,0,105,.13,27,.13,54,1.2,81,.46,11.7-9.59,18.16-19.28,12.76A51.46,51.46,0,0,0,188,387.5l-2.28-1.3V356.27q0-39.69-.07-79.39v-2q0-41.45.07-82.91,0-18-.07-36V66.79ZM213,161.7l2.25-.13c1.7-7.26,3.56-14.48,5.06-21.78a196.14,196.14,0,0,0,3.46-20.59,82.59,82.59,0,0,0,0-18.53c-1.05-7.89-2-16.26-5.27-23.34-5.09-10.94-12.17-20.94-18.32-31.39a35.45,35.45,0,0,1-2-5l-3.63,2.32C214.84,80.57,214.4,121.06,213,161.7Z"/><path class="cls-5" d="M108.21,373.45c-.95-.34-2-1.12-2.85-.95-5,1-7.15-2.2-8.3-6-1.29-4.29-1.83-8.81-2.7-13.23-.16-1.75-.24-3.51-.48-5.24Q92,334.77,90.14,321.47l-2-24.4V284.36A34.5,34.5,0,0,0,89,278.3c-.21-10.69-1-21.39-.83-32.07.19-11.71,1.21-23.42,1.87-35.12v-9.45c0-6.6.18-13.2,0-19.8,0-1.59-1.27-3.14-2-4.71L88,173c-2-5.4-2.77-11.95-6.34-16-7-7.94-7.87-16.69-7.37-26.27.34-6.46.64-12.91,1-19.37V106.1l.11-9.54V94.48c.66-2.86,1.32-5.73,2-8.59l0-4.2,5.4-8.42,3.25.06c-.36,14.8-.83,29.59-1,44.39a52.93,52.93,0,0,0,1.5,11.08c.19.9,2,2.29,2.58,2.08a5.1,5.1,0,0,0,2.67-2.75c.48-1.25.19-2.79.22-4.19q.54-23.68,1-47.37L102,75.39c.33,3.84,1.14,7.7.89,11.5-.68,10.3-1.82,20.57-2.75,30.85-.44,5-.13,9.79,5.22,14.12.77-2.7,1.33-4.7,1.9-6.69.68-1.25,1.91-2.49,1.92-3.74.16-11.13.13-22.26.05-33.4,0-1.13-.74-2.25-1.14-3.37V80.78c2.59-.67,5.4-2.25,7.65-1.66,1.2.32,1.48,4.37,2,6.78a17.16,17.16,0,0,1,.1,3.14,81.07,81.07,0,0,1,.86,9.4c-.17,9-.83,17.92-.8,26.87,0,2,2,4,3.05,6,1.48-1.5,3-2.91,4.4-4.53a4.16,4.16,0,0,0,.78-2.49c.09-10,.11-19.92.15-29.88,0-1.4-.05-2.8,0-4.2.35-11.69-2.6-10.79,10.86-10.55-.11,1-.23,2-.33,3.08-3.29-1.34-5.09-.12-5.27,3.29-.41,7.89-.34,15.81-1.16,23.64-.87,8.31-1.77,16.75-4.11,24.7C124.07,142,120,149,116.62,156.51l2.3.55c-1.79,5.37-4.88,10.68-5.13,16.11-.79,17.6-.53,35.24-.67,52.86-.57-1.69-1.6-3.37-1.64-5.07-.17-8.12-.06-16.24-.1-24.37,0-1.6-.19-3.21-.29-4.81l-1.22.09q-1.19,87.48-2.35,174.93l2.49.37a34.9,34.9,0,0,0,1.37-5.76c.48-8.78.66-17.58,1.21-26.36.11-1.75,1.41-3.42,2.16-5.13a111.91,111.91,0,0,1-2.26,41.45c0,.31,0,.63,0,.95Z"/><path class="cls-4" d="M331.82,353.36c.45,3.13.79,6.27,1.38,9.38,1.1,5.73.06,7-5.86,7.47-4.85.42-9.66,1.25-14.49,1.92q-7.73,0-15.45,0l0-5.82c8.76-.83,17.55-1.51,26.28-2.62,1.4-.18,3.79-2.46,3.64-3.46-1.11-7.27-2.95-14.42-4.15-21.68-2.12-12.63-4.74-25.25-5.77-38-2-24.22-3-48.52-4.31-72.79-.3-5.64,0-11.32-.27-17-1.28-24.63-2.74-49.24-3.94-73.87a14.31,14.31,0,0,1,1.78-6.91c3.32-6.39,7.11-12.56,10.56-18.9q13.89-25.49,2.85-52.39c-1.92-4.7-3.8-9.42-5.69-14.12l3.86,1.16c3.19,6.9,7.3,13.59,9.4,20.85,2.29,7.95,4.21,16.53,3.68,24.68-1,15.77-8.23,29.64-17.54,42.3-2.7,3.69-3.73,7.48-1.91,11.81l1.36,34.87.1,14.92.83,10.63,1.05,15.9,2,36c0,2.91.16,5.78.12,8.67a360.34,360.34,0,0,0,6.6,72.46C328.94,343.78,330.53,348.54,331.82,353.36Z"/><path class="cls-1" d="M112.43,372.32a7.47,7.47,0,0,1,0-.95c1.14-.89,2.9-1.55,3.32-2.71,1.88-5.05,3.38-10.25,5-15.4,18.71,0,37.41-.11,56.12.14,5,.07,6.78-1.43,6.72-6.6-.24-21.35-.15-42.7,0-64.05,0-2,1.27-3.91,2-5.87l.06,79.39V386.2c-.7-1.84-1.91-3.65-2-5.52-.39-7.19-.25-7.21-7.58-7.21-19.21,0-38.42,0-57.63-.05A33.57,33.57,0,0,1,112.43,372.32Z"/><path class="cls-1" d="M297.42,366.35c0,1.94,0,3.87,0,5.81-2.17.42-4.34,1.25-6.51,1.25-24.14.1-48.29.07-72.43.08q-.08-10.1-.12-20.17c21.46,0,42.92.09,64.38-.12,3.7,0,7.4-1.34,11.11-2.07,0,3.69-.29,7.44.23,11.06C294.27,363.72,296.25,365,297.42,366.35Z"/><path class="cls-3" d="M217.37,221.68c0-10.15-.24-20.31.15-30.44.12-3.32,1.89-6.59,2.9-9.88a3.09,3.09,0,0,0,1.05-.12c22-11.15,42.56-24.49,60.61-41.51,1.79-1.69,4.3-2.63,6.47-3.92.39.68.77,1.37,1.15,2.05,0,4.66-.2,9.33,0,14,.07,1.41,1.25,2.77,1.94,4.15v33.86c-14-1-26.5,3.57-38.86,10,12.2,6.77,25.4,9.55,38.91,11.32l.08,54.09c-1.57-1-3.4-1.82-4.68-3.14-12.52-12.79-26.43-23.74-42.88-30.9C235.55,227.44,226.34,224.83,217.37,221.68Z"/><path class="cls-3" d="M293.83,351.15c-3.71.72-7.41,2-11.11,2.07-21.46.21-42.92.11-64.38.12a46.19,46.19,0,0,1-.81-6.16c-.07-32.07,0-64.14-.13-96.21,0-4.36-.76-8.72-.86-13.1a59.37,59.37,0,0,1,.77-7.72c5.75,9,11.17,18.16,17.35,26.8,7.25,10.15,14.7,20.21,22.89,29.58,9.37,10.7,21.63,17.9,34.24,24.34l.06,2.08c0,6.95-.18,13.91,0,20.85.05,1.59,1.27,3.15,1.95,4.72Zm-52.14-48.77c-11.09,0-17.54,6.33-17.9,16.79-.41,11.62,9,18.6,17.71,19.13,8.09.49,18.2-10,18.4-18.24C260.11,311.4,250.83,302.39,241.69,302.38Z"/><path class="cls-1" d="M291.79,310.87c-12.61-6.44-24.87-13.64-34.24-24.36-8.19-9.36-15.64-19.43-22.89-29.57-6.18-8.65-11.6-17.85-17.35-26.8l.06-8.45c9,3.14,18.18,5.75,26.87,9.55,16.46,7.17,30.36,18.12,42.88,30.9,1.28,1.31,3.11,2.1,4.68,3.14.13,5.18.29,10.35.38,15.53q.26,14.38.42,28.76C292.6,310,292.07,310.43,291.79,310.87Z"/><path class="cls-1" d="M288.57,135.83c-2.18,1.29-4.68,2.23-6.48,3.92-18,17-38.58,30.35-60.6,41.52a3.38,3.38,0,0,1-1.05.11c3.55-11.41,7.17-22.79,10.63-34.22,1-3.35,1.56-6.84,2.32-10.26,1.62-1.51,3.34-2.9,4.83-4.54,6.23-6.79,12.37-13.67,18.6-20.46,3.13-3.42,6.37-6.73,9.55-10.08,1.17,2.13,2.2,4.37,3.55,6.39C276.1,117.44,282.35,126.62,288.57,135.83Z"/><path class="cls-3" d="M266.37,101.81c-3.19,3.36-6.43,6.64-9.54,10.08-6.23,6.8-12.37,13.67-18.6,20.47-1.49,1.62-3.22,3-4.84,4.53q1.11-17.52,2.21-35c6.23.13,11.73-1.35,15.7-6.67,3.51-4.71,6-9.8,3.59-15.55C252,72.71,248,66.29,239,66.92c-4.08.29-8.11,1.4-12.16,2.15L211,45.74l60.72-.11A37.79,37.79,0,0,1,270,51.7C262.25,68,261,84.63,266.37,101.81Z"/><path class="cls-1" d="M226.81,69.07c4.05-.75,8.08-1.86,12.17-2.15,9-.63,13,5.79,15.89,12.71,2.44,5.75-.07,10.84-3.59,15.55-4,5.32-9.46,6.8-15.7,6.67C235.89,90.06,230.1,79.9,226.81,69.07Z"/><path class="cls-3" d="M90.11,201.64v9.46c-2.56,2.83-3.38,6.83-8.41,7.88-7.38,1.52-12.3,7.89-12.75,13.7-1,12,1.53,17,10.74,19.55,8.86,2.42,7.24,7.3,7.31,12.84.06,4.41-.09,8.83.07,13.23a43.74,43.74,0,0,0,1,6.05v12.73c-2.6,6.26-5.31,12.48-7.73,18.82-.54,1.44-.07,3.28-.06,4.94a30.21,30.21,0,0,1,4.43-.32,49.64,49.64,0,0,1,5.4,1c1.24,8.85,2.51,17.7,3.73,26.57.24,1.73.33,3.49.48,5.24-13.6,0-27.2-.1-40.81.1-4.32.06-5.89-1.37-5.89-5.82q.14-148.12,0-296.26c0-4.47,1.66-5.76,5.94-5.75,41.34.11,82.68,0,124,.16,2.67,0,5.33,1.34,8,2.07l0,19c-.67,1.06-1.9,2.1-1.92,3.17q-.26,11.75,0,23.48c0,1.07,1.24,2.11,1.93,3.16v4.15c-2.91,3.12-2.89,9.74,0,12.83v6.27c-3.25,2.87-3.23,5.73,0,8.59v2c-3,3.22-3,20.22,0,23.45v2c-.68,1.77-1.82,3.51-1.94,5.32-.29,4.38-.1,8.79-.1,13.2l-1.55.18c-11.1-22.31-22.71-44.3-38.88-63.46,0-7.35,0-14.7,0-22,0-4.45-1.66-7.77-6-9.41-13.47-.24-10.51-1.14-10.86,10.55,0,1.39,0,2.79,0,4.19-4.81,1.35-5.53-3.74-8.45-5.37a15.72,15.72,0,0,0-.1-3.15c-.55-2.4-.83-6.45-2-6.77-2.25-.6-5.07,1-7.65,1.66L102,75.42,93.06,76.6l-7-3.24L82.8,73.3c-5.87.39-7.3,2.62-5.4,8.41l0,4.2c-.65,2.87-1.31,5.73-2,8.6v2.07l-.11,9.55v5.27c-.68,1.24-1.78,2.43-2,3.73-.31,2.43.18,5-.14,7.4-1.1,8.13.11,16.42-5.3,24.1-3.93,5.6-2.63,14.86,3,20.4,5,4.91,10.59,6.54,17.22,6,0,1.38.06,2.77.1,4.15a18.33,18.33,0,0,0,0,3.14c.67,4.65-.66,7.56-5.81,8.46-2.77.49-5.31,2.24-8,3.43l.06,1.84ZM145.35,81.48c0,11,6.86,18.24,17.17,18.29,8.53,0,17.46-6.86,17.75-18.85.19-8.46-9.23-17.44-18.18-17.13C152.06,64.16,143.6,72.9,145.35,81.48Z"/><path class="cls-5" d="M266.37,101.81C261,84.63,262.25,68,270,51.7a35.81,35.81,0,0,0,1.7-6.07c3.25-3.45,6.61-6.79,9.72-10.35,8-9.14,19.76-8.9,28.43-.64,3.17,3,5.72,6.64,8.56,10,1.89,4.71,3.77,9.43,5.69,14.11q11,26.88-2.85,52.39c-3.45,6.34-7.22,12.51-10.56,18.9a14.35,14.35,0,0,0-1.78,6.92c1.2,24.63,2.66,49.24,3.94,73.86.3,5.64,0,11.32.27,17,1.31,24.28,2.35,48.57,4.31,72.8,1,12.73,3.64,25.34,5.77,38,1.22,7.26,3.06,14.42,4.15,21.69.15,1-2.24,3.27-3.64,3.45-8.72,1.11-17.52,1.8-26.28,2.63-1.18-1.37-3.15-2.63-3.36-4.15-.52-3.63-.21-7.37-.24-11.07V338.48c0-7,.17-13.9,0-20.84,0-1.6-1.25-3.15-1.95-4.73l-.06-2.07c.28-.44.83-.89.83-1.32q-.15-14.38-.41-28.76c-.1-5.18-.25-10.36-.38-15.54q0-27-.08-54.08V156c0-4.66.2-9.33,0-14-.07-1.41-1.27-2.77-1.95-4.15l-1.14-2c-6.23-9.21-12.46-18.39-18.65-27.63A71.76,71.76,0,0,1,266.37,101.81Zm57.36-21.93a60.15,60.15,0,0,1-2.12-8.82c-1.54-14-9-24.6-19.37-33.12-6.09-5-15.27-5.35-18.11,3.88-1.6,5.18-1.52,12,.58,16.91,3.19,7.47,9,13.74,13.28,20.8,3.92,6.52,6.42,13.51,4.62,21.45-1.08,4.77-1.49,9.68-2.33,14.51-.6,3.42-1.62,6.79-2,10.24-.16,1.35.48,3.41,1.47,4.07.76.49,3.09-.32,3.94-1.25a62.92,62.92,0,0,0,6.31-8.38A87.65,87.65,0,0,0,323.73,79.88Zm-1,279.66c-1-5.17-1.84-9.26-2.63-13.36-1.66-8.58-3.52-17.13-4.9-25.74-1.16-7.27-1.78-14.61-2.61-21.93-1.28-11.34-3-22.65-3.69-34-.63-10.21-.12-20.5-.15-30.75,0-1.61-.23-3.21-.45-6.05-1,1.64-1.48,2-1.5,2.41-.79,12.12-2.14,24.24-2.12,36.35,0,14.42,1,28.85,2.08,43.25a125.35,125.35,0,0,0,3.18,20.75c2.26,9.29.63,17.31-5.46,24.59a71.62,71.62,0,0,0-4.21,6.19l.89,1.49Z"/><path class="cls-3" d="M315.91,145.47c-1.82-4.33-.8-8.12,1.91-11.81,9.31-12.66,16.5-26.52,17.53-42.3.54-8.15-1.38-16.73-3.68-24.68-2.11-7.26-6.22-14-9.43-20.86,7.95-.06,15.9-.06,23.84-.21,4.18-.08,6.35,1.66,6.17,6,0,1.06,0,2.12,0,3.19V344.14c0,8.93-.23,9.13-9.29,9.16-3.71,0-7.42,0-11.13,0-1.3-4.81-2.89-9.58-3.82-14.47a359.45,359.45,0,0,1-6.6-72.45c0-2.91-.08-5.78-.12-8.67,4.77-2.42,10.38-3.95,14.08-7.47,5.27-5,5.48-12.22,2.41-18.71-3.61-7.6-9.84-11.33-18.55-9.78l-1.05-15.88,11.48-3.65.06-2-12.37-4.95-.1-14.91c2.61-.3,5.24-.46,7.81-.93,11.24-2,15.36-12.1,13.07-22.05A16.93,16.93,0,0,0,315.91,145.47Z"/><path class="cls-3" d="M185.59,276.89c-.68,2-1.93,3.91-2,5.87-.14,21.35-.22,42.71,0,64.05.06,5.17-1.7,6.68-6.72,6.61-18.69-.25-37.41-.13-56.12-.14.1-2.45.27-4.91.28-7.37,0-10.72-.07-21.45,0-32.18,0-3.8.41-7.6.62-11.4,1.33-.34,2.88-.34,3.94-1.07a134.3,134.3,0,0,0,34.87-35.51c8.85-13.1,15.24-27.42,20.38-42.34.33-1,.11-2.82-.5-3.21-.78-.48-2.42-.2-3.38.32-10.45,5.69-21,11.18-31.21,17.35C137.28,243,129.26,249,121,254.68c0-14.62-.09-29.23-.06-43.83a20.53,20.53,0,0,1,.83-4c9.57-2.71,19.87-3.25,29.92-9.44-11-4.22-19.86-10-30.76-9.59,0-5.07.35-10.18-.15-15.19-.87-8.66,5-13.08,10.44-17.85a23.37,23.37,0,0,1,3.68,2.05c12.9,10.57,27.81,17.44,43.07,23.78,5.78,2.41,6.46,5.54,5,11.82A62.74,62.74,0,0,0,181.75,208c.11,4.83,1.63,9.64,1.7,14.47.23,15.68,0,31.38.18,47.07,0,1.79,1.25,3.56,1.94,5.34C185.58,275.53,185.59,276.2,185.59,276.89Zm-40.24,39.92c0,10.63,6.49,17,16.63,17.53a17.47,17.47,0,0,0,18.34-17.51c-.19-11.39-8.36-17.65-17.35-18.51-8.84-.85-17.62,8.93-17.62,18.48Z"/><path class="cls-1" d="M185.58,274.85c-.67-1.77-1.92-3.55-1.94-5.33-.15-15.69.05-31.39-.18-47.07-.07-4.83-1.59-9.64-1.7-14.47A63.18,63.18,0,0,1,183,192.42c1.48-6.29.81-9.42-5-11.82-15.24-6.34-30.16-13.21-43.07-23.78a23,23,0,0,0-3.68-2c.33-1.17.35-2.58,1-3.48,7.81-10.2,9.33-22,9-34.32,0-1.92,1.2-3.87,1.85-5.81,16.17,19.15,27.79,41.14,38.88,63.45l1.56-.18c0-4.4-.19-8.81.09-13.19.12-1.81,1.25-3.56,1.94-5.33,0,12,.07,24,.07,36Q185.64,233.39,185.58,274.85Z"/><path class="cls-2" d="M213,161.7c1.42-40.64,1.86-81.13-18.49-118.42L198.12,41a35,35,0,0,0,2,5c6.15,10.45,13.23,20.46,18.32,31.39,3.29,7.09,4.22,15.44,5.27,23.34a81.43,81.43,0,0,1,0,18.53,195.26,195.26,0,0,1-3.46,20.59c-1.5,7.3-3.36,14.53-5.06,21.78Z"/><path class="cls-1" d="M185.59,96.61c-.68-1.06-1.91-2.08-1.93-3.17q-.25-11.73,0-23.48c0-1.06,1.24-2.11,1.92-3.16Q185.58,81.7,185.59,96.61Z"/><path class="cls-1" d="M185.59,153.9c-3-3.22-3-20.22,0-23.44Z"/><path class="cls-1" d="M185.6,113.58c-2.91-3.09-2.91-9.71,0-12.83Q185.59,107.16,185.6,113.58Z"/><path class="cls-1" d="M185.59,128.44c-3.23-2.87-3.25-5.73,0-8.59Z"/><path class="cls-4" d="M143.12,111.17c-.66,1.93-1.91,3.88-1.86,5.81.37,12.35-1.15,24.12-9,34.32-.69.9-.7,2.31-1,3.49-5.5,4.75-11.32,9.17-10.45,17.85.5,5,.14,10.12.16,15.18l.83,19a19.83,19.83,0,0,0-.83,4c0,14.61,0,29.22.06,43.83q.36,23.82.7,47.64c-.22,3.8-.6,7.6-.62,11.4-.08,10.73,0,21.46,0,32.18,0,2.46-.18,4.91-.28,7.37-1.63,5.14-3.13,10.34-5,15.4-.42,1.15-2.19,1.81-3.32,2.7a112.12,112.12,0,0,0,2.25-41.45c0-1.39-.1-2.79-.14-4.18q-.47-10.63-.92-21.27v-6.36l-.55-72.06c.15-17.63-.1-35.26.69-52.86.24-5.44,3.32-10.74,5.12-16.11l5.17-5.44,2.34-3,2-3.19c4.67-6,6-12.94,6.16-20.29.06-1.05.12-2.09.19-3.14l1.77-17,.23-22.22c.12-1,.23-2,.35-3.08,4.33,1.66,6,5,6,9.41C143.13,96.47,143.13,103.82,143.12,111.17Z"/><path class="cls-2" d="M114.57,325.73c.05,1.4.1,2.79.14,4.19-.74,1.71-2,3.38-2.15,5.13-.55,8.78-.73,17.58-1.21,26.36a33,33,0,0,1-1.37,5.76l-2.49-.37,2.37-174.92,1.22-.09c.11,1.61.29,3.21.3,4.81,0,8.13-.08,16.25.1,24.37,0,1.7,1.06,3.38,1.63,5.07q.26,36,.54,72.06v6.36c-.27,6.74-.56,13.47-.73,20.2C112.91,325,114,325.37,114.57,325.73Z"/><path class="cls-1" d="M88.11,284.36a43.38,43.38,0,0,1-1-6c-.15-4.4,0-8.83-.06-13.24-.07-5.54,1.55-10.41-7.32-12.83-9.21-2.49-11.68-7.5-10.74-19.55.46-5.85,5.38-12.2,12.76-13.7,5-1,5.84-5,8.41-7.89-.66,11.71-1.69,23.41-1.88,35.13-.17,10.68.61,21.37.83,32.06A35.79,35.79,0,0,1,88.11,284.36Z"/><path class="cls-1" d="M88,173c-6.64.58-12.27-1-17.21-6-5.59-5.54-6.89-14.8-2.95-20.4,5.39-7.68,4.19-16,5.29-24.11.33-2.42-.17-5,.15-7.39.17-1.31,1.27-2.49,2-3.74-.32,6.46-.62,12.91-1,19.37-.5,9.57.42,18.34,7.38,26.25C85.26,161,86,167.56,88,173Z"/><path class="cls-4" d="M86.07,73.34l7,3.25L92,124c0,1.41.25,3-.22,4.19a5,5,0,0,1-2.68,2.75c-.59.2-2.39-1.19-2.58-2.08a52.26,52.26,0,0,1-1.49-11.08C85.22,103,85.7,88.14,86.07,73.34Z"/><path class="cls-2" d="M124.09,151.64l-5.17,5.44-2.3-.57C120,149,124.07,142,126.29,134.4c2.33-8,3.23-16.4,4.1-24.7.83-7.83.75-15.77,1.17-23.64.18-3.41,2-4.63,5.26-3.29L136.58,105l-1.77,17.06c-.06,1-.13,2.09-.19,3.14q-3.1,10.13-6.19,20.26l-2,3.17Z"/><path class="cls-1" d="M117.86,89.08c2.91,1.62,3.63,6.71,8.44,5.36,0,10-.06,19.93-.15,29.89a4.18,4.18,0,0,1-.78,2.49c-1.35,1.61-2.91,3-4.4,4.52-1.07-2-3-4-3-6,0-9,.63-17.91.8-26.87A78.51,78.51,0,0,0,117.86,89.08Z"/><path class="cls-4" d="M102,75.41l6.08,5.4v3.88c-1,1.46-2.9,2.91-2.93,4.37-.27,10.24-.27,20.48-.06,30.72,0,1.82,1.41,3.63,2.16,5.44-.56,2-1.13,4-1.9,6.69-5.35-4.34-5.66-9.13-5.22-14.12.93-10.28,2.08-20.55,2.75-30.85C103.14,83.11,102.32,79.25,102,75.41Z"/><path class="cls-1" d="M107.26,125.2c-.76-1.81-2.13-3.61-2.17-5.43-.2-10.24-.2-20.48.06-30.72,0-1.48,1.92-2.91,2.94-4.37.39,1.12,1.12,2.24,1.13,3.37.09,11.13.11,22.26,0,33.39C109.18,122.71,107.93,124,107.26,125.2Z"/><path class="cls-1" d="M90.11,201.64,74.39,194c0-.61,0-1.24-.07-1.84,2.64-1.18,5.18-2.94,8-3.42,5.16-.91,6.49-3.81,5.81-8.46a17.37,17.37,0,0,1,0-3.14c.68,1.57,1.91,3.12,2,4.71C90.29,188.44,90.13,195.05,90.11,201.64Z"/><path class="cls-1" d="M90.16,321.48a51.41,51.41,0,0,0-5.4-1,28.8,28.8,0,0,0-4.43.32c0-1.66-.49-3.49.06-4.94,2.42-6.33,5.13-12.56,7.73-18.82Q89.13,309.27,90.16,321.48Z"/><path class="cls-1" d="M77.4,81.7c-1.89-5.81-.45-8,5.4-8.42Z"/><path class="cls-1" d="M75.28,106.1l.11-9.54Z"/><path class="cls-1" d="M75.4,94.49c.66-2.86,1.32-5.73,2-8.59C76.71,88.76,76.06,91.63,75.4,94.49Z"/><path class="cls-1" d="M315.91,145.47a17,17,0,0,1,22.24,11.9c2.28,10-1.83,20-13.07,22-2.58.47-5.21.63-7.81.93Q316.57,162.91,315.91,145.47Z"/><path class="cls-1" d="M319.23,221.79c8.71-1.55,14.94,2.18,18.54,9.78,3.06,6.49,2.86,13.68-2.42,18.71-3.7,3.53-9.31,5.06-14.08,7.47Q320.27,239.78,319.23,221.79Z"/><path class="cls-1" d="M317.35,195.26l12.37,4.94-.06,2.05-11.48,3.66Q317.76,200.57,317.35,195.26Z"/><path class="cls-1" d="M291.71,189.88v21.3c-13.51-1.75-26.71-4.57-38.91-11.32C265.17,193.42,277.71,188.89,291.71,189.88Z"/><path class="cls-1" d="M289.72,137.89c.68,1.38,1.88,2.74,1.95,4.15.22,4.65.05,9.31,0,14-.68-1.38-1.87-2.74-1.94-4.15C289.52,147.21,289.69,142.54,289.72,137.89Z"/><path class="cls-1" d="M241.69,302.38c9.13,0,18.42,9,18.21,17.68-.2,8.22-10.31,18.73-18.4,18.24-8.71-.53-18.11-7.48-17.71-19.13C224.16,308.71,230.6,302.37,241.69,302.38Z"/><path class="cls-1" d="M291.85,312.94c.68,1.57,1.9,3.13,1.94,4.72.2,6.94,0,13.9,0,20.84-.68-1.56-1.9-3.12-1.95-4.71C291.67,326.84,291.83,319.89,291.85,312.94Z"/><path class="cls-1" d="M145.35,81.48c-1.75-8.58,6.71-17.32,16.74-17.69,8.95-.33,18.37,8.67,18.18,17.13-.29,12-9.22,18.9-17.75,18.85C152.21,99.72,145.34,92.53,145.35,81.48Z"/><path class="cls-2" d="M323.73,79.88A87.48,87.48,0,0,1,310,120.15a62.78,62.78,0,0,1-6.32,8.38c-.83.94-3.18,1.75-3.93,1.24-1-.65-1.63-2.71-1.47-4.06.41-3.45,1.43-6.82,2-10.24.83-4.83,1.25-9.74,2.33-14.51C304.41,93,301.92,86,298,79.51c-4.25-7.06-10.1-13.34-13.28-20.8-2.1-4.9-2.18-11.73-.58-16.91,2.84-9.23,12-8.87,18.1-3.88,10.38,8.52,17.85,19.15,19.38,33.12A58.77,58.77,0,0,0,323.73,79.88Z"/><path class="cls-2" d="M322.71,359.54l-21.59,3.15-.89-1.49a73.79,73.79,0,0,1,4.21-6.18c6.09-7.28,7.73-15.31,5.46-24.59a126.53,126.53,0,0,1-3.18-20.76c-1-14.39-2-28.82-2.07-43.24,0-12.12,1.33-24.23,2.11-36.35,0-.42.47-.78,1.51-2.41.21,2.83.43,4.44.44,6.05,0,10.25-.47,20.53.16,30.75.7,11.37,2.4,22.68,3.69,34,.83,7.31,1.44,14.66,2.61,21.92,1.37,8.63,3.23,17.18,4.89,25.74C320.89,350.28,321.69,354.37,322.71,359.54Z"/><path class="cls-1" d="M121.73,302.31q-.36-23.81-.71-47.63c8.24-5.64,16.26-11.63,24.79-16.81C156,231.7,166.56,226.21,177,220.52a4.07,4.07,0,0,1,3.37-.32c.62.39.83,2.25.5,3.21-5.13,14.9-11.53,29.22-20.38,42.34a134.3,134.3,0,0,1-34.87,35.51C124.6,302,123.05,302,121.73,302.31Z"/><path class="cls-1" d="M145.35,316.8c0-9.55,8.78-19.33,17.62-18.49,9,.83,17.16,7.11,17.35,18.5A17.48,17.48,0,0,1,162,334.33C151.84,333.81,145.35,327.42,145.35,316.8Z"/><path class="cls-1" d="M121.8,206.83l-.83-19c10.9-.38,19.78,5.37,30.76,9.59C141.68,203.58,131.38,204.12,121.8,206.83Z"/><path class="cls-5" d="M114.57,325.73c-.57-.36-1.66-.73-1.66-1.07.17-6.73.46-13.46.73-20.2Q114.12,315.08,114.57,325.73Z"/><path class="cls-5" d="M128.43,145.44l6.19-20.26C134.5,132.53,133.13,139.49,128.43,145.44Z"/><path class="cls-5" d="M134.81,122.05l1.76-17Z"/><path class="cls-5" d="M124.09,151.64l2.33-3Z"/></g></g></g></svg>