<svg xmlns="http://www.w3.org/2000/svg" viewBox="0 0 679.27 400"><defs><style>.cls-1{fill:#cecece;}.cls-2{fill:#b5b5b5;}.cls-3{fill:#a6a6a6;}</style></defs><title>television-400</title><g id="Layer_2" data-name="Layer 2"><g id="Layer_1-2" data-name="Layer 1"><path class="cls-1" d="M0,400V0H679.27V400ZM42.88,39.25c-.86,2-2.47,4.1-2.48,6.16q-.18,153.38,0,306.74c0,2.09,1.57,4.18,2.41,6.27q96.72,0,193.43-.06c5.85,0,11.7-.62,17.55-.95a64.13,64.13,0,0,0,8.33,1.07q61.15.11,122.31,0c13,0,26-.16,38.94-.25q103.65.12,207.28.33c5.3,0,5.87-2.32,5.86-6.62q-.1-151.81-.07-303.62c0-7.85-.5-8.25-8.26-8.3-39.61-.29-79.21-.7-118.82-.84-29.87-.11-59.74.12-89.61.2-1.82-.11-3.64-.32-5.46-.32q-75.15,0-150.3,0a58,58,0,0,0-7.79,1c-4.85-.31-9.7-.89-14.56-.89Q142.26,39.19,42.88,39.25ZM581.29,370.73h37.77a126.53,126.53,0,0,0,12.78-.17c1.56-.15,2.95-1.93,4.42-3-1.5-1-3-2-4.6-2.91-.47-.26-1.2,0-1.81,0H534.79a13.82,13.82,0,0,0-4.79.5c-1.11.44-1.86,1.8-2.77,2.76,1,.88,1.78,2.19,2.91,2.54,1.5.5,3.21.25,4.83.25Q558.13,370.74,581.29,370.73Zm0,26.83h37.77c4.27,0,8.56.25,12.79-.17,1.56-.15,2.95-1.93,4.42-3-1.51-1-3-2-4.61-2.92-.46-.25-1.19-.05-1.8-.05H534.8c-1.41,0-3-.19-4.2.35s-2.26,1.93-3.36,2.94c1.15.91,2.19,2.22,3.5,2.64,1.5.47,3.22.16,4.84.16ZM96.34,364.62c-16,0-32.09-.11-48.13.13-2.14,0-4.29,1.82-6.44,2.82,2.07,1.06,4.13,3,6.2,3q47.52.3,95,0c2.14,0,4.27-1.91,6.41-2.94-2.06-1-4.09-2.86-6.17-2.89C127.62,364.51,112,364.62,96.34,364.62Zm113.07,0h-46.3c-1.42,0-3-.31-4.23.15s-2.31,1.72-3.44,2.62c1,1.08,1.92,2.44,3.18,3.12.95.51,2.38.21,3.6.21H256a5.85,5.85,0,0,0,2.41-.07,53,53,0,0,0,4.65-2.84c-1.44-1.06-2.77-2.41-4.38-3.07-1.22-.5-2.81-.12-4.23-.12Zm258.27,0c-16,0-32.08-.09-48.12.14-1.87,0-3.71,1.88-5.57,2.89,1.94,1,3.85,2.1,5.83,3a4.69,4.69,0,0,0,1.8,0h92.61c1.41,0,3,.31,4.21-.22s2.15-1.93,3.2-2.95c-1.13-.95-2.12-2.3-3.43-2.74-1.46-.51-3.21-.19-4.83-.19Q490.52,364.62,467.68,364.62ZM96.35,391.45c-16,0-32.08-.11-48.12.13-2.16,0-4.3,1.82-6.46,2.79,2.07,1.06,4.12,3,6.19,3.05q47.52.29,95,0c2.14,0,4.28-1.91,6.42-2.93-2-1-4.09-2.88-6.16-2.91C127.63,391.34,112,391.45,96.35,391.45ZM209,397.56h42.65a47.13,47.13,0,0,0,7.89-.19c1.28-.21,2.35-1.71,3.51-2.63a19.71,19.71,0,0,0-3.69-3.13c-1-.5-2.39-.15-3.6-.15H162.58c-1.42,0-3-.25-4.22.21s-2.72,1.6-2.73,2.47a4.18,4.18,0,0,0,2.29,3c1.42.58,3.18.36,4.81.36q23.15,0,46.3,0Zm258.9-6.11H425.27a49.37,49.37,0,0,0-7.89.17c-1.25.21-2.28,1.71-3.41,2.63a20.46,20.46,0,0,0,3.21,3.11c.75.46,2,.18,3,.18,31.68,0,63.35.07,95-.12,2.16,0,4.3-1.83,6.44-2.81-2.27-1.05-4.5-3-6.82-3-15.65-.29-31.29-.16-46.92-.16Zm114.35-18.29c-16.43,0-32.86-.08-49.29.11-1.83,0-3.64,1.5-5.46,2.33,1.81.83,3.61,2.37,5.43,2.38q49,.22,98,0c1.79,0,3.57-1.5,5.35-2.34-1.77-.83-3.53-2.35-5.32-2.37-16.23-.19-32.46-.11-48.69-.11Zm-.12,14.66h45a43.6,43.6,0,0,0,6.68-.2,3.28,3.28,0,0,0,2.25-2.16c0-.79-1.17-2-2.07-2.33a13.72,13.72,0,0,0-4.22-.23H534.29a14.73,14.73,0,0,0-4.22.24c-1,.29-1.71,1.38-2.54,2.12.77.79,1.41,2,2.34,2.27a18,18,0,0,0,4.83.28q23.71,0,47.45,0ZM95.22,378.09c16.23,0,32.46.08,48.69-.11,1.82,0,3.62-1.56,5.42-2.39-1.83-.81-3.65-2.32-5.48-2.33q-48.39-.21-96.78,0c-1.77,0-3.54,1.56-5.31,2.39,1.79.81,3.57,2.31,5.37,2.33C63.16,378.17,79.19,378.09,95.22,378.09Zm114.57-4.94H163.53a26,26,0,0,0-5.45.25c-1,.21-1.7,1.38-2.53,2.11.77.79,1.41,2,2.34,2.28a13.48,13.48,0,0,0,4.23.28c31.65,0,63.3.05,94.95-.09,2,0,4-1.48,6-2.27-1.95-.85-3.88-2.43-5.85-2.45C241.44,373.08,225.61,373.16,209.79,373.15Zm258.52,4.94h26.17c7.71,0,15.42.11,23.12-.13,1.38,0,2.71-1.58,4-2.42a44.34,44.34,0,0,0-4.22-2.33,6.65,6.65,0,0,0-2.41-.06H421.28a18.46,18.46,0,0,0-4.83.28c-.93.25-1.59,1.47-2.36,2.25.82.75,1.55,1.89,2.5,2.14a19.39,19.39,0,0,0,4.83.25ZM95.15,387.82c16.23,0,32.46.07,48.69-.11,1.84,0,3.66-1.5,5.49-2.32-1.81-.83-3.61-2.38-5.42-2.39q-48.39-.21-96.78,0c-1.79,0-3.58,1.5-5.37,2.33,1.77.83,3.51,2.36,5.3,2.38C63.1,387.9,79.12,387.82,95.15,387.82Zm114.29,0h38.94c3.86,0,7.73.13,11.56-.14,1.1-.08,2.11-1.36,3.15-2.09a26.25,26.25,0,0,0-3.3-2.61c-.62-.35-1.59-.09-2.41-.09H161.81a15.58,15.58,0,0,0-4.22.33c-.81.22-2.07,1.46-1.94,1.85a4,4,0,0,0,2.07,2.43,17.58,17.58,0,0,0,4.83.31q23.46,0,46.89,0Zm258.9,0c15.83,0,31.65.09,47.47-.11,2,0,3.91-1.6,5.86-2.45-2-.79-4-2.26-6-2.27q-47.78-.21-95.56,0c-2,0-4,1.6-6,2.46,2,.78,4.09,2.23,6.16,2.26,16,.19,32,.11,48.07.11Z"/><path class="cls-2" d="M581.29,370.73H535a16.46,16.46,0,0,1-4.83-.25c-1.13-.36-1.95-1.66-2.91-2.54.91-1,1.66-2.33,2.77-2.77a13.58,13.58,0,0,1,4.79-.5q47.54,0,95.06,0c.61,0,1.34-.21,1.81.06,1.58.88,3.07,1.92,4.6,2.9-1.47,1.05-2.86,2.83-4.42,3-4.22.42-8.51.16-12.78.16Z"/><path class="cls-2" d="M581.28,397.56h-45.7c-1.62,0-3.36.3-4.84-.17-1.31-.42-2.35-1.72-3.5-2.63,1.1-1,2.06-2.36,3.36-2.94s2.79-.35,4.2-.35h95.06c.61,0,1.34-.21,1.8,0,1.59.88,3.08,1.93,4.61,2.91-1.47,1-2.86,2.82-4.42,3-4.23.42-8.51.16-12.79.16Z"/><path class="cls-2" d="M96.34,364.62c15.64,0,31.28-.11,46.91.14,2.08,0,4.11,1.88,6.17,2.89-2.14,1-4.27,2.93-6.41,2.94q-47.52.29-95,0c-2.07,0-4.13-2-6.2-3,2.15-1,4.29-2.77,6.44-2.8C64.25,364.51,80.3,364.62,96.34,364.62Z"/><path class="cls-2" d="M209.41,364.62h45.07c1.42,0,3-.38,4.22.13,1.61.66,2.94,2,4.39,3.07-1.54,1-3,2-4.66,2.84a5.85,5.85,0,0,1-2.41.07h-93.8c-1.22,0-2.65.31-3.6-.21-1.26-.69-2.14-2-3.18-3.12,1.13-.91,2.15-2.15,3.44-2.62s2.81-.15,4.23-.15Z"/><path class="cls-2" d="M467.68,364.62h45.7c1.62,0,3.37-.31,4.83.19,1.31.44,2.3,1.79,3.43,2.74-1,1-1.94,2.4-3.2,2.95s-2.8.22-4.21.22H421.62a4.68,4.68,0,0,1-1.8,0c-2-.94-3.89-2-5.83-3,1.86-1,3.7-2.87,5.57-2.89C435.6,364.53,451.64,364.62,467.68,364.62Z"/><path class="cls-2" d="M96.35,391.45c15.64,0,31.28-.11,46.91.14,2.07,0,4.11,1.89,6.16,2.91-2.14,1-4.28,2.91-6.42,2.92q-47.52.29-95,0c-2.07,0-4.12-2-6.19-3,2.16-1,4.3-2.77,6.46-2.77C64.27,391.34,80.31,391.45,96.35,391.45Z"/><path class="cls-2" d="M209,397.56H162.74c-1.63,0-3.39.22-4.81-.36a4.21,4.21,0,0,1-2.29-3.05c0-.86,1.6-2.07,2.73-2.47a13.1,13.1,0,0,1,4.22-.21H255.8c1.21,0,2.63-.34,3.6.15a20.09,20.09,0,0,1,3.69,3.13c-1.16.92-2.23,2.42-3.51,2.64a48.22,48.22,0,0,1-7.89.18Z"/><path class="cls-2" d="M467.92,391.45c15.63,0,31.27-.13,46.9.14,2.3,0,4.56,2,6.83,3-2.15,1-4.29,2.8-6.44,2.81-31.68.18-63.36.13-95,.12-1,0-2.24.28-3-.19a19.62,19.62,0,0,1-3.21-3.11c1.12-.92,2.16-2.42,3.4-2.62a48.32,48.32,0,0,1,7.9-.18Z"/><path class="cls-2" d="M582.27,373.16c16.23,0,32.46-.08,48.68.11,1.79,0,3.55,1.54,5.32,2.37-1.78.81-3.56,2.34-5.35,2.34q-49,.22-98,0c-1.82,0-3.62-1.55-5.43-2.38,1.82-.81,3.63-2.31,5.46-2.33C549.41,373.08,565.84,373.16,582.27,373.16Z"/><path class="cls-2" d="M582.15,387.82H534.69a18,18,0,0,1-4.83-.28c-.93-.25-1.57-1.5-2.34-2.27.83-.74,1.57-1.83,2.54-2.12a14.73,14.73,0,0,1,4.22-.24h95.54a13.72,13.72,0,0,1,4.22.23c.9.3,2.1,1.56,2.07,2.33s-1.36,2-2.25,2.16a43.64,43.64,0,0,1-6.68.2Z"/><path class="cls-2" d="M95.22,378.09c-16,0-32,.08-48.08-.11-1.8,0-3.58-1.5-5.37-2.33,1.77-.83,3.54-2.38,5.31-2.39q48.39-.21,96.78,0c1.83,0,3.65,1.51,5.48,2.33-1.8.83-3.6,2.37-5.42,2.39C127.7,378.17,111.45,378.09,95.22,378.09Z"/><path class="cls-2" d="M209.79,373.16c15.82,0,31.65-.09,47.47.11,2,0,3.9,1.6,5.85,2.45-2,.79-4,2.26-6,2.27-31.65.14-63.3.1-94.95.09a13.48,13.48,0,0,1-4.23-.28c-.93-.31-1.57-1.5-2.34-2.28.83-.73,1.58-1.9,2.53-2.11a26,26,0,0,1,5.45-.25Q186.66,373.15,209.79,373.16Z"/><path class="cls-2" d="M468.31,378.09H421.43a19.39,19.39,0,0,1-4.83-.25c-1-.25-1.69-1.4-2.5-2.14.77-.78,1.43-2,2.36-2.26a18.41,18.41,0,0,1,4.83-.27H515a6.44,6.44,0,0,1,2.41.06,44.34,44.34,0,0,1,4.22,2.33c-1.34.84-2.67,2.37-4,2.41-7.7.24-15.41.13-23.12.13Z"/><path class="cls-2" d="M95.15,387.82c-16,0-32.05.08-48.08-.11-1.77,0-3.53-1.56-5.3-2.39,1.79-.81,3.58-2.32,5.37-2.33q48.39-.21,96.78,0c1.81,0,3.61,1.57,5.42,2.4-1.83.81-3.65,2.3-5.49,2.32C127.62,387.89,111.38,387.82,95.15,387.82Z"/><path class="cls-2" d="M209.44,387.82H162.57a17.2,17.2,0,0,1-4.83-.3,4,4,0,0,1-2.07-2.43c-.13-.39,1.13-1.63,1.94-1.86a16,16,0,0,1,4.22-.32H257.4c.82,0,1.79-.26,2.41.09a25.37,25.37,0,0,1,3.3,2.61c-1,.72-2.05,2-3.15,2.08-3.83.27-7.7.14-11.55.14Z"/><path class="cls-2" d="M468.33,387.82c-16,0-32.05.08-48.08-.1-2.06,0-4.1-1.48-6.15-2.26,2-.86,4-2.45,6-2.46q47.78-.22,95.56,0c2,0,4,1.5,6,2.27-1.95.85-3.89,2.42-5.85,2.45C500,387.91,484.15,387.82,468.33,387.82Z"/><rect class="cls-3" x="40.39" y="38.89" width="595.92" height="319.5"/></g></g></svg>